<svg width="43" height="36" viewBox="0 0 43 36" fill="none" xmlns="http://www.w3.org/2000/svg">
<g filter="url(#filter0_d_11_11)">
<path d="M34.625 0H8.375C7.21506 0.0012408 6.10298 0.462576 5.28278 1.28278C4.46258 2.10298 4.00124 3.21506 4 4.375V23.125C4.00124 24.2849 4.46258 25.397 5.28278 26.2172C6.10298 27.0374 7.21506 27.4988 8.375 27.5H34.625C35.7849 27.4988 36.897 27.0374 37.7172 26.2172C38.5374 25.397 38.9988 24.2849 39 23.125V4.375C38.9988 3.21506 38.5374 2.10298 37.7172 1.28278C36.897 0.462576 35.7849 0.0012408 34.625 0ZM33.5172 7.23672L22.2672 15.9867C22.0478 16.1573 21.7779 16.2498 21.5 16.2498C21.2221 16.2498 20.9522 16.1573 20.7328 15.9867L9.48281 7.23672C9.35064 7.1369 9.23961 7.01181 9.1562 6.86872C9.07278 6.72562 9.01864 6.56737 8.99691 6.40317C8.97519 6.23897 8.98631 6.07209 9.02964 5.91222C9.07296 5.75236 9.14763 5.6027 9.2493 5.47194C9.35096 5.34118 9.4776 5.23193 9.62186 5.15054C9.76611 5.06915 9.92511 5.01723 10.0896 4.99782C10.2541 4.9784 10.4208 4.99188 10.58 5.03745C10.7393 5.08302 10.8879 5.15978 11.0172 5.26328L21.5 13.4164L31.9828 5.26328C32.2449 5.06533 32.5744 4.97851 32.9001 5.0216C33.2257 5.06469 33.5213 5.23422 33.7229 5.49353C33.9245 5.75285 34.016 6.0811 33.9775 6.40731C33.939 6.73352 33.7736 7.03147 33.5172 7.23672Z" fill="#E8E8E8"/>
</g>
<defs>
<filter id="filter0_d_11_11" x="0" y="0" width="43" height="35.5" filterUnits="userSpaceOnUse" color-interpolation-filters="sRGB">
<feFlood flood-opacity="0" result="BackgroundImageFix"/>
<feColorMatrix in="SourceAlpha" type="matrix" values="0 0 0 0 0 0 0 0 0 0 0 0 0 0 0 0 0 0 127 0" result="hardAlpha"/>
<feOffset dy="4"/>
<feGaussianBlur stdDeviation="2"/>
<feComposite in2="hardAlpha" operator="out"/>
<feColorMatrix type="matrix" values="0 0 0 0 0 0 0 0 0 0 0 0 0 0 0 0 0 0 0.25 0"/>
<feBlend mode="normal" in2="BackgroundImageFix" result="effect1_dropShadow_11_11"/>
<feBlend mode="normal" in="SourceGraphic" in2="effect1_dropShadow_11_11" result="shape"/>
</filter>
</defs>
</svg>
