<svg width="27" height="27" viewBox="0 0 27 27" fill="none" xmlns="http://www.w3.org/2000/svg">
<path d="M9.41479 26.4602L9.38749 26.4508C4.21871 24.6853 0.5 19.6961 0.5 13.8181C0.5 6.47803 6.30912 0.5 13.5 0.5C20.6909 0.5 26.5 6.47803 26.5 13.8181C26.5 19.6902 22.7872 24.6853 17.6123 26.4509L17.5827 26.461L17.5521 26.4673C17.4446 26.4895 17.3352 26.5005 17.2255 26.5M9.41479 26.4602L17.2277 26M9.41479 26.4602L9.44298 26.4663C9.54785 26.4891 9.65488 26.5004 9.7622 26.5M9.41479 26.4602L16.625 7.63504M17.2255 26.5L17.2277 26M17.2255 26.5C17.2262 26.5 17.2269 26.5 17.2277 26.5V26M17.2255 26.5C16.8589 26.4994 16.5539 26.3576 16.35 26.1101C16.1586 25.8777 16.0915 25.596 16.0915 25.3583C16.0915 25.2179 16.0934 24.9706 16.0958 24.642C16.0971 24.4753 16.0985 24.2877 16.0999 24.0825C16.1041 23.4707 16.1083 22.6976 16.1083 21.8426C16.1083 20.7569 15.7443 20.1255 15.4282 19.8449L14.5903 19.1014L15.7033 18.9742C17.0659 18.8186 18.3697 18.483 19.3331 17.6566C20.274 16.8495 20.9688 15.504 20.9688 13.1484C20.9688 11.8795 20.5307 10.8528 19.8114 10.043L19.607 9.8128L19.7205 9.52663C19.8135 9.29195 20.1689 8.24856 19.7003 6.79267M17.2277 26C16.7645 26 16.5915 25.6596 16.5915 25.3583C16.5915 25.2198 16.5933 24.9758 16.5958 24.6491C16.6008 23.9882 16.6083 22.9891 16.6083 21.8426C16.6083 21.0038 16.41 20.3688 16.1374 19.9278C16.0299 19.9424 15.923 19.9556 15.8168 19.9678L15.76 19.471L16.0919 19.097C16.1883 19.1825 16.2808 19.2797 16.368 19.3884C18.9541 18.9753 21.4688 17.7127 21.4688 13.1484C21.4688 11.7533 20.9833 10.6094 20.1853 9.71094C20.3136 9.38728 20.7433 8.08147 20.0625 6.31808M19.7003 6.79267C19.7315 6.79088 19.7592 6.79018 19.7835 6.79018H19.7924L19.8012 6.78986C19.85 6.78813 19.8987 6.79301 19.9461 6.80435L20.0625 6.31808M19.7003 6.79267C19.6693 6.69627 19.6346 6.59807 19.5961 6.49816L19.7835 6.4258L19.7882 6.42397L20.0625 6.31808M19.7003 6.79267C19.3188 6.81451 18.4161 6.99855 16.9105 8.04555L16.7171 8.18001L16.4903 8.11655C14.5307 7.56828 12.4582 7.56828 10.4986 8.11655L10.2718 8.18001L10.0784 8.04555C8.5727 6.99855 7.67003 6.81451 7.28854 6.79267C6.81992 8.24856 7.1753 9.29195 7.26836 9.52663L7.38224 9.8138L7.17637 10.0441C6.45848 10.8474 6.02009 11.8734 6.02009 13.1484C6.02009 15.4984 6.71346 16.8461 7.65276 17.657C8.61401 18.4868 9.91409 18.8273 11.27 18.9855L12.3638 19.1132L11.5478 19.8526C11.2925 20.084 11.0138 20.5323 10.9151 21.2623L10.8787 21.5317L10.6328 21.6476C10.1219 21.8884 9.56583 22.0187 9.00107 22.03L8.99107 22.0302V22.0301C8.07559 22.0301 7.06681 21.637 6.34713 20.3775L6.34142 20.3675L6.3415 20.3675L6.3399 20.3647C6.33693 20.3595 6.33157 20.3503 6.32384 20.3377C6.30835 20.3123 6.28355 20.2734 6.24962 20.2251C6.18132 20.1279 6.07858 19.9964 5.94344 19.8627C5.8295 19.75 5.69796 19.6409 5.54934 19.5488C5.57349 19.5722 5.59812 19.5967 5.62315 19.6224C5.94653 19.9548 6.33074 20.4811 6.63962 21.2836L6.64706 21.3029L6.65177 21.3191L6.65195 21.3196L6.65376 21.3252C6.65618 21.3324 6.66079 21.3456 6.66789 21.3641C6.68211 21.4011 6.70608 21.4584 6.74198 21.5292C6.81413 21.6715 6.93212 21.8639 7.11214 22.0562C7.46158 22.4296 8.06973 22.8321 9.12302 22.8326C9.50994 22.8295 9.89532 22.7834 10.272 22.6951L10.8829 22.5519L10.8862 23.1793C10.8892 23.7674 10.894 24.2801 10.8977 24.6726C10.9007 24.9889 10.9029 25.2271 10.9029 25.3638C10.9029 25.6041 10.8316 25.8847 10.6386 26.1144C10.4336 26.3584 10.1288 26.4997 9.7622 26.5M20.0625 6.31808C19.9712 6.29623 19.8773 6.28684 19.7835 6.29018C19.3315 6.29018 18.3103 6.46317 16.625 7.63504M16.625 7.63504C14.5773 7.06212 12.4116 7.06212 10.3638 7.63504H16.625ZM9.7622 26.5C9.76185 26.5 9.76151 26.5 9.76116 26.5V26L9.76323 26.5C9.76289 26.5 9.76254 26.5 9.7622 26.5ZM6.34253 20.3693C6.34267 20.3696 6.34266 20.3695 6.34249 20.3692L6.34253 20.3693Z" fill="#E8E8E8" stroke="black"/>
</svg>
