<svg width="25" height="25" viewBox="0 0 25 25" fill="none" xmlns="http://www.w3.org/2000/svg">
<g clip-path="url(#clip0_40_11)">
<path d="M8.70901 0.822224C6.21112 1.68876 4.05695 3.33349 2.5629 5.51481C1.06885 7.69613 0.313682 10.2991 0.408313 12.9413C0.502944 15.5835 1.44239 18.1258 3.08865 20.1946C4.73492 22.2635 7.00124 23.7499 9.55471 24.4355C11.6249 24.9697 13.7938 24.9931 15.875 24.5039C17.7604 24.0804 19.5035 23.1745 20.9336 21.875C22.4221 20.4811 23.5024 18.7079 24.0586 16.7461C24.6629 14.6126 24.7705 12.369 24.3731 10.1875H12.7481V15.0097H19.4805C19.3459 15.7788 19.0576 16.5129 18.6327 17.168C18.2079 17.8231 17.6552 18.3857 17.0078 18.8222C16.1858 19.3662 15.2591 19.7322 14.2871 19.8964C13.3124 20.0777 12.3126 20.0777 11.3379 19.8964C10.3499 19.6924 9.41534 19.2846 8.59378 18.6992C7.27375 17.7648 6.2826 16.4373 5.76175 14.9062C5.23223 13.3464 5.23223 11.6555 5.76175 10.0957C6.1325 9.00233 6.74541 8.00686 7.55471 7.18355C8.48087 6.22407 9.65341 5.53823 10.9437 5.20128C12.234 4.86432 13.5921 4.88928 14.8692 5.2734C15.8668 5.5795 16.7791 6.11456 17.5332 6.8359C18.2923 6.08069 19.0502 5.32353 19.8067 4.56441C20.1973 4.15621 20.6231 3.76754 21.0078 3.34957C19.8565 2.27831 18.5052 1.44469 17.0313 0.896443C14.3471 -0.0781867 11.4101 -0.104379 8.70901 0.822224Z" fill="white"/>
<path d="M8.70898 0.822318C11.4099 -0.104914 14.3469 -0.0794112 17.0312 0.894584C18.5055 1.44656 19.8562 2.28419 21.0059 3.35943C20.6152 3.7774 20.2031 4.16802 19.8047 4.57427C19.0469 5.33078 18.2897 6.08469 17.5332 6.83599C16.7791 6.11466 15.8668 5.57959 14.8691 5.27349C13.5925 4.88802 12.2344 4.86163 10.9438 5.19721C9.65316 5.53278 8.47991 6.21736 7.55273 7.17583C6.74342 7.99915 6.13052 8.99462 5.75977 10.0879L1.71094 6.95318C3.16017 4.07927 5.66943 1.88096 8.70898 0.822318Z" fill="#E33629"/>
<path d="M0.636713 10.0586C0.854173 8.98002 1.21547 7.93553 1.71093 6.95312L5.75976 10.0957C5.23025 11.6555 5.23025 13.3464 5.75976 14.9063C4.4108 15.9479 3.06119 16.9948 1.71093 18.0469C0.470992 15.5787 0.0928317 12.7666 0.636713 10.0586Z" fill="#F8BD00"/>
<path d="M12.7481 10.1855H24.3731C24.7705 12.3671 24.6629 14.6106 24.0586 16.7441C23.5024 18.706 22.422 20.4792 20.9336 21.873C19.627 20.8535 18.3145 19.8418 17.0078 18.8223C17.6556 18.3853 18.2085 17.8221 18.6334 17.1663C19.0583 16.5105 19.3464 15.7757 19.4805 15.0059H12.7481C12.7461 13.4004 12.7481 11.793 12.7481 10.1855Z" fill="#587DBD"/>
<path d="M1.70898 18.0469C3.05924 17.0052 4.40885 15.9583 5.75781 14.9062C6.2797 16.4379 7.27228 17.7654 8.59375 18.6992C9.41787 19.282 10.3545 19.6864 11.3438 19.8867C12.3185 20.068 13.3183 20.068 14.293 19.8867C15.2649 19.7224 16.1917 19.3565 17.0137 18.8125C18.3203 19.832 19.6328 20.8438 20.9395 21.8633C19.5096 23.1635 17.7664 24.0701 15.8809 24.4941C13.7996 24.9834 11.6307 24.96 9.56055 24.4258C7.92325 23.9886 6.3939 23.218 5.06836 22.1621C3.66548 21.0481 2.5196 19.6444 1.70898 18.0469Z" fill="#319F43"/>
</g>
<defs>
<clipPath id="clip0_40_11">
<rect width="25" height="25" fill="white"/>
</clipPath>
</defs>
</svg>
