<svg width="40" height="41" viewBox="0 0 40 41" fill="none" xmlns="http://www.w3.org/2000/svg">
<rect y="0.0849609" width="40" height="40" rx="20" fill="white"/>
<path d="M20 7.08496C16.4721 7.08496 16.0285 7.10121 14.6424 7.16296C13.2562 7.22796 12.3121 7.44571 11.485 7.76746C10.6174 8.09379 9.83155 8.60568 9.18238 9.26734C8.52112 9.91684 8.0093 10.7026 7.6825 11.57C7.36075 12.3955 7.14138 13.3412 7.078 14.7225C7.01625 16.1118 7 16.5538 7 20.0866C7 23.6161 7.01625 24.0581 7.078 25.4442C7.143 26.8287 7.36075 27.7728 7.6825 28.6C8.01562 29.4547 8.45925 30.1795 9.18238 30.9026C9.90388 31.6257 10.6286 32.071 11.4834 32.4025C12.3121 32.7242 13.2546 32.9436 14.6391 33.007C16.0269 33.0687 16.4689 33.085 20 33.085C23.5311 33.085 23.9715 33.0687 25.3593 33.007C26.7421 32.942 27.6895 32.7242 28.5166 32.4025C29.3837 32.076 30.169 31.5641 30.8176 30.9026C31.5407 30.1795 31.9844 29.4547 32.3175 28.6C32.6376 27.7728 32.857 26.8287 32.922 25.4442C32.9837 24.0581 33 23.6161 33 20.085C33 16.5538 32.9837 16.1118 32.922 14.7241C32.857 13.3412 32.6376 12.3955 32.3175 11.57C31.9907 10.7026 31.4789 9.91681 30.8176 9.26734C30.1687 8.60543 29.3827 8.09351 28.515 7.76746C27.6862 7.44571 26.7405 7.22634 25.3576 7.16296C23.9699 7.10121 23.5295 7.08496 19.9967 7.08496H20.0016H20ZM18.8349 9.42821H20.0016C23.4726 9.42821 23.8837 9.43959 25.2536 9.50296C26.5211 9.55984 27.2101 9.77271 27.6684 9.94984C28.2745 10.1855 28.7084 10.4682 29.1634 10.9232C29.6184 11.3782 29.8995 11.8105 30.1351 12.4182C30.3139 12.8748 30.5251 13.5638 30.582 14.8313C30.6454 16.2012 30.6584 16.6123 30.6584 20.0817C30.6584 23.5511 30.6454 23.9638 30.582 25.3337C30.5251 26.6012 30.3123 27.2886 30.1351 27.7468C29.9267 28.3113 29.594 28.8217 29.1617 29.2402C28.7067 29.6952 28.2745 29.9763 27.6667 30.212C27.2118 30.3907 26.5227 30.602 25.2536 30.6605C23.8837 30.7222 23.4726 30.7368 20.0016 30.7368C16.5306 30.7368 16.1179 30.7222 14.748 30.6605C13.4805 30.602 12.7931 30.3907 12.3349 30.212C11.7702 30.0038 11.2593 29.6718 10.8399 29.2402C10.4072 28.821 10.074 28.3102 9.86488 27.7452C9.68775 27.2886 9.47487 26.5996 9.418 25.3321C9.35625 23.9622 9.34325 23.5511 9.34325 20.0785C9.34325 16.6075 9.35625 16.198 9.418 14.8281C9.4765 13.5606 9.68775 12.8716 9.8665 12.4133C10.1021 11.8072 10.3849 11.3733 10.8399 10.9183C11.2949 10.4633 11.7271 10.1822 12.3349 9.94659C12.7931 9.76784 13.4805 9.55659 14.748 9.49809C15.9473 9.44284 16.412 9.42659 18.8349 9.42496V9.42821ZM26.9404 11.5862C26.7355 11.5862 26.5327 11.6266 26.3434 11.705C26.1541 11.7834 25.9821 11.8983 25.8373 12.0431C25.6924 12.188 25.5775 12.36 25.4991 12.5492C25.4207 12.7385 25.3804 12.9413 25.3804 13.1462C25.3804 13.3511 25.4207 13.5539 25.4991 13.7432C25.5775 13.9325 25.6924 14.1044 25.8373 14.2493C25.9821 14.3942 26.1541 14.5091 26.3434 14.5875C26.5327 14.6659 26.7355 14.7062 26.9404 14.7062C27.3541 14.7062 27.7509 14.5419 28.0435 14.2493C28.336 13.9567 28.5004 13.5599 28.5004 13.1462C28.5004 12.7325 28.336 12.3357 28.0435 12.0431C27.7509 11.7506 27.3541 11.5862 26.9404 11.5862ZM20.0016 13.4095C19.1161 13.3956 18.2367 13.5581 17.4146 13.8874C16.5925 14.2168 15.8441 14.7063 15.213 15.3276C14.5819 15.949 14.0807 16.6896 13.7386 17.5065C13.3965 18.3234 13.2203 19.2002 13.2203 20.0858C13.2203 20.9714 13.3965 21.8482 13.7386 22.665C14.0807 23.4819 14.5819 24.2226 15.213 24.8439C15.8441 25.4652 16.5925 25.9548 17.4146 26.2841C18.2367 26.6134 19.1161 26.7759 20.0016 26.7621C21.7543 26.7347 23.4258 26.0193 24.6556 24.7702C25.8853 23.5212 26.5746 21.8386 26.5746 20.0858C26.5746 18.3329 25.8853 16.6504 24.6556 15.4013C23.4258 14.1522 21.7543 13.4368 20.0016 13.4095ZM20.0016 15.7511C21.151 15.7511 22.2534 16.2077 23.0661 17.0204C23.8789 17.8332 24.3355 18.9355 24.3355 20.085C24.3355 21.2344 23.8789 22.3367 23.0661 23.1495C22.2534 23.9622 21.151 24.4188 20.0016 24.4188C18.8522 24.4188 17.7499 23.9622 16.9371 23.1495C16.1244 22.3367 15.6678 21.2344 15.6678 20.085C15.6678 18.9355 16.1244 17.8332 16.9371 17.0204C17.7499 16.2077 18.8522 15.7511 20.0016 15.7511Z" fill="black"/>
</svg>
