<svg width="40" height="41" viewBox="0 0 40 41" fill="none" xmlns="http://www.w3.org/2000/svg">
<g clip-path="url(#clip0_28_6)">
<rect y="0.0849609" width="40" height="40" rx="5" fill="black"/>
<path d="M0 2.94996C0 1.36746 1.315 0.0849609 2.9375 0.0849609H37.0625C38.685 0.0849609 40 1.36746 40 2.94996V37.22C40 38.8025 38.685 40.085 37.0625 40.085H2.9375C1.315 40.085 0 38.8025 0 37.22V2.94996ZM12.3575 33.57V15.5075H6.355V33.57H12.3575ZM9.3575 13.04C11.45 13.04 12.7525 11.655 12.7525 9.91996C12.715 8.14746 11.4525 6.79996 9.3975 6.79996C7.3425 6.79996 6 8.14996 6 9.91996C6 11.655 7.3025 13.04 9.3175 13.04H9.3575ZM21.6275 33.57V23.4825C21.6275 22.9425 21.6675 22.4025 21.8275 22.0175C22.26 20.94 23.2475 19.8225 24.9075 19.8225C27.08 19.8225 27.9475 21.4775 27.9475 23.9075V33.57H33.95V23.21C33.95 17.66 30.99 15.08 27.04 15.08C23.855 15.08 22.4275 16.83 21.6275 18.0625V18.125H21.5875C21.6008 18.1041 21.6141 18.0833 21.6275 18.0625V15.5075H15.6275C15.7025 17.2025 15.6275 33.57 15.6275 33.57H21.6275Z" fill="white"/>
</g>
<defs>
<clipPath id="clip0_28_6">
<rect y="0.0849609" width="40" height="40" rx="5" fill="white"/>
</clipPath>
</defs>
</svg>
